<svg width="40" height="40" viewBox="0 0 40 40" fill="none" xmlns="http://www.w3.org/2000/svg">
<path d="M36 24.3333L35.3889 24C35.1667 23.8889 35.0556 23.6667 35.1111 23.4444C35.2778 22.3889 35.3889 18.7222 29.7222 17.0556C29.6111 17 29.5 17 29.3889 17L18.5 17.0556C18.2778 17.0556 18.0556 17.1111 17.8889 17.2222L12.1667 21.0556C12.0556 21.1111 11.9444 21.1667 11.8333 21.1667C10.7778 21.1111 9.77778 21.2222 8.72223 21.3889C5.72223 22 4.50001 23.6111 4.05556 24.4444C3.94445 24.6111 3.94445 24.8333 3.94445 25C4.00001 26.3333 3.11112 27.8333 4.44445 29.0556L15.2222 29L26.5556 28.7222L35.5 28.6111C36 28.5556 36.8333 27.8333 37.0556 27.3889C38 25.8889 36.1111 24.3889 36 24.3333V24.3333Z" fill="#D0CFCE"/>
<path d="M9.61111 25.6667C8.38888 25.6667 7.38889 26.6667 7.38889 27.8889C7.38889 29.1111 8.38888 30.1111 9.61111 30.1111C10.8333 30.1111 11.8333 29.1111 11.8333 27.8889C11.8333 26.6667 10.8333 25.6667 9.61111 25.6667ZM31.7222 25.6667C30.5 25.6667 29.5 26.6667 29.5 27.8889C29.5 29.1111 30.5 30.1111 31.7222 30.1111C32.9444 30.1111 33.9444 29.1111 33.9444 27.8889C33.9444 26.6667 32.9444 25.6667 31.7222 25.6667Z" fill="#9B9B9A"/>
<path d="M31.1667 21.7222V19.3334C31.1667 18.8334 30.7222 18.3889 30.2222 18.3889H18.4444C18.3889 18.3889 18.3333 18.3889 18.3333 18.4445L13.8889 21.6111C13.7778 21.6667 13.7778 21.8334 13.8333 21.9445C13.8889 22 13.9444 22.0556 14 22.0556C17.1111 22.0556 29.1111 21.9445 30.8889 22C31.0556 22 31.1667 21.8889 31.1667 21.7222C31.1667 21.7778 31.1667 21.7778 31.1667 21.7222V21.7222Z" fill="#3F3F3F"/>
<path d="M4.94445 22.3889L7.16667 23.2778L6.00001 24.8889L3.22223 24.9445L4.94445 22.3889Z" fill="#FCEA2B"/>
<path d="M19.3889 16.2222C19.3889 16.2222 19.3333 15.0555 20.7222 15C22.0556 14.9444 22.0556 16.2222 22.0556 16.2222" fill="#92D3F5"/>
<path d="M19.3889 16.2222C19.3889 16.2222 19.3333 15.0555 20.7222 15C22.0556 14.9444 22.0556 16.2222 22.0556 16.2222" stroke="black" stroke-width="2" stroke-miterlimit="10" stroke-linecap="round" stroke-linejoin="round"/>
<path d="M26.4444 28.2222L15 28.4444M4.5 28.4444C4 28.3333 3.55555 28.1667 3.5 27.8889C3.44444 27.3333 3.33333 25.7778 3.33333 25.0556C3.33333 24.7778 3.38888 24.4444 3.55555 24.2222C4.16666 23.1111 6.22222 20.4444 11.8333 20.6667L17.5555 16.8333C17.8333 16.6667 18.1667 16.5556 18.4444 16.5556L29.3333 16.5C29.5 16.5 29.6667 16.5 29.8333 16.5556C31.0555 16.8889 36.3333 18.7778 35.6111 23.5556L36.2222 23.8889C36.5 24 36.7222 24.2778 36.7778 24.5556C37 25.3333 36.9444 26.1667 36.6667 26.9444" stroke="black" stroke-width="2" stroke-linecap="round" stroke-linejoin="round"/>
<path d="M13.8333 22.0556L30.6111 21.9445V19.4445" stroke="black" stroke-width="2" stroke-linecap="round" stroke-linejoin="round"/>
<path d="M9.61111 30.6666C11.1452 30.6666 12.3889 29.423 12.3889 27.8889C12.3889 26.3547 11.1452 25.1111 9.61111 25.1111C8.07698 25.1111 6.83333 26.3547 6.83333 27.8889C6.83333 29.423 8.07698 30.6666 9.61111 30.6666Z" stroke="black" stroke-width="2" stroke-linecap="round" stroke-linejoin="round"/>
<path d="M31.7222 30.6666C33.2563 30.6666 34.5 29.423 34.5 27.8889C34.5 26.3547 33.2563 25.1111 31.7222 25.1111C30.1881 25.1111 28.9444 26.3547 28.9444 27.8889C28.9444 29.423 30.1881 30.6666 31.7222 30.6666Z" stroke="black" stroke-width="2" stroke-linecap="round" stroke-linejoin="round"/>
<path d="M6.83333 23.7222L5.83333 24.9445L3.77777 24.8889" stroke="black" stroke-width="2" stroke-linecap="round" stroke-linejoin="round"/>
<path d="M13.3889 24H27.8333" stroke="black" stroke-width="2" stroke-miterlimit="10" stroke-linecap="round" stroke-linejoin="round"/>
<path d="M13.3889 24H27.8333" stroke="#61B2E4" stroke-width="2.1" stroke-miterlimit="10" stroke-linecap="round" stroke-linejoin="round"/>
</svg>
