<svg width="44" height="50" viewBox="0 0 44 50" fill="none" xmlns="http://www.w3.org/2000/svg">
<path d="M5 32.1815V5.0982C5 4.33431 5.26767 3.75237 5.803 3.35237C6.33711 2.95376 6.90972 2.89334 7.52083 3.17112L31.2167 14.4732H30.6667C29.5972 14.4732 28.5889 14.6121 27.6417 14.8899C26.6944 15.1676 25.7778 15.5496 24.8917 16.0357L8.66667 8.2232V15.5149L19.6667 18.6399L8.66667 21.7649V29.0565L18.5667 24.2649C18.3222 25.0635 18.1389 25.8531 18.0167 26.6336C17.8944 27.4156 17.8333 28.2232 17.8333 29.0565V29.1607L7.56667 34.1086C6.95556 34.3864 6.375 34.3253 5.825 33.9253C5.275 33.5267 5 32.9454 5 32.1815ZM30.6667 39.4732C28.1306 39.4732 25.9691 38.4579 24.1822 36.4274C22.3941 34.3954 21.5 31.9385 21.5 29.0565C21.5 26.1746 22.3941 23.7176 24.1822 21.6857C25.9691 19.6551 28.1306 18.6399 30.6667 18.6399C33.2028 18.6399 35.3649 19.6551 37.153 21.6857C38.9399 23.7176 39.8333 26.1746 39.8333 29.0565C39.8333 31.9385 38.9399 34.3954 37.153 36.4274C35.3649 38.4579 33.2028 39.4732 30.6667 39.4732ZM34.3333 33.2232C34.5167 33.0149 34.6083 32.7718 34.6083 32.494C34.6083 32.2163 34.5167 31.9732 34.3333 31.7649L31.5833 28.6399V23.8482C31.5833 23.5704 31.4917 23.3274 31.3083 23.119C31.125 22.9107 30.9111 22.8065 30.6667 22.8065C30.4222 22.8065 30.2083 22.9107 30.025 23.119C29.8417 23.3274 29.75 23.5704 29.75 23.8482V28.8482C29.75 29.0565 29.7806 29.2475 29.8417 29.4211C29.9028 29.5947 30.0097 29.7683 30.1625 29.9419L33.05 33.2232C33.2333 33.4315 33.4472 33.5357 33.6917 33.5357C33.9361 33.5357 34.15 33.4315 34.3333 33.2232ZM8.66667 24.2649V8.2232V29.0565V24.2649Z" fill="#BCBABA"/>
</svg>
