<svg width="28" height="30" viewBox="0 0 28 30" fill="none" xmlns="http://www.w3.org/2000/svg">
<path d="M25.6711 7.87969H21.4617C20.9859 7.87969 20.5617 7.81875 20.2922 7.59844C20.0297 7.38281 19.9547 6.96328 19.9477 6.63281V2.32031C19.9477 1.04297 18.9023 0 17.6273 0H10.3641C9.08672 0 8.04141 1.04297 8.04141 2.32031V6.63281C8.03672 6.96328 7.95938 7.38281 7.69922 7.59844C7.42969 7.82109 7.00547 7.87969 6.52969 7.87969H2.32266C1.04297 7.87969 0 8.92266 0 10.2023V29.2313H10.1063V26.1891C10.1063 25.4766 10.6852 24.893 11.4 24.893H16.5914C17.3039 24.893 17.8875 25.4766 17.8875 26.1891V29.2313H27.9961V10.2023C27.9938 8.92266 26.9484 7.87969 25.6711 7.87969V7.87969ZM5.76562 21.525H2.87812V17.8453H5.76562V21.525ZM5.76562 15.6773H2.87812V11.9977H5.76562V15.6773ZM10.6031 21.525H7.71563V17.8453H10.6031V21.525V21.525ZM10.6031 15.6773H7.71563V11.9977H10.6031V15.6773V15.6773ZM15.4383 21.525H12.5484V17.8453H15.4383V21.525V21.525ZM15.4383 15.6773H12.5484V11.9977H15.4383V15.6773V15.6773ZM20.2734 21.525H17.3883V17.8453H20.2734V21.525V21.525ZM20.2734 15.6773H17.3883V11.9977H20.2734V15.6773V15.6773ZM25.1109 21.525H22.2234V17.8453H25.1109V21.525ZM25.1109 15.6773H22.2234V11.9977H25.1109V15.6773Z" fill="#40C0E7"/>
</svg>
