<svg width="40" height="40" viewBox="0 0 40 40" fill="none" xmlns="http://www.w3.org/2000/svg">
<path d="M30.45 10C32.1333 13.6167 31.75 17.8834 29.9 21.35C28.3333 24.1667 26.0833 26.55 24.1667 29.1667C23.3333 30.3334 22.5 31.5834 21.8833 32.9334C21.6667 33.3834 21.5167 33.85 21.35 34.3167C21.1833 34.7834 21.0333 35.25 20.8833 35.7167C20.7333 36.15 20.55 36.6667 20 36.6667C19.35 36.6667 19.1667 35.9334 19.0333 35.4334C18.6333 34.2167 18.2333 33.05 17.6167 31.9334C16.9167 30.6167 16.0333 29.4 15.1333 28.2167L30.45 10ZM15.2 14.0334L9.7 20.5667C10.7167 22.7167 12.2333 24.55 13.6833 26.3834C14.0333 26.8 14.3833 27.2334 14.7167 27.6834L21.6667 19.45L21.6 19.4667C19.1667 20.3 16.4667 19.0667 15.5 16.6667C15.3667 16.3834 15.2667 16.05 15.2 15.7167C15.1083 15.1649 15.1083 14.6018 15.2 14.05V14.0334ZM10.9667 7.70004L10.95 7.71671C8.25 11.1334 7.78333 15.8834 9.4 19.9L16.05 12L15.9667 11.9167L10.9667 7.70004ZM23.7 3.93337L18.3333 10.2834L18.4 10.2667C20.6333 9.50004 23.1333 10.4667 24.2667 12.5C24.5167 12.9667 24.7167 13.4667 24.7833 13.9667C24.8833 14.6 24.9167 15.05 24.8 15.6667V15.6834L30.1333 9.35004C28.7392 6.81569 26.4519 4.89079 23.7167 3.95004L23.7 3.93337ZM16.4833 11.4834L23 3.73337L22.9333 3.71671C21.9667 3.46671 20.9833 3.33337 20 3.33337C16.7167 3.33337 13.6167 4.75004 11.4167 7.18337L11.3833 7.20004L16.4833 11.4834Z" fill="#BCBABA"/>
</svg>
