<svg width="17" height="26" viewBox="0 0 17 26" fill="none" xmlns="http://www.w3.org/2000/svg">
<g clip-path="url(#clip0_137_17)">
<path d="M4.68794 19.2602C5.39267 20.2185 6.03407 21.2279 6.60749 22.2812C7.09708 23.2717 7.30118 23.9434 7.65898 25.1369C7.87842 25.7963 8.07674 25.9932 8.50313 25.9932C8.96776 25.9932 9.17856 25.6583 9.34143 25.1405C9.67965 24.0134 9.94503 23.1532 10.3637 22.3404C11.1853 20.7712 12.2062 19.3768 13.2093 18.0366C13.4808 17.6573 15.2366 15.4476 16.027 13.704C16.027 13.704 16.9985 11.7887 16.9985 9.11384C16.9985 6.61174 16.0404 4.8764 16.0404 4.8764L13.282 5.66462L11.6069 10.3723L11.1925 11.0215L11.1096 11.1391L10.9994 11.2863L10.8059 11.5214L10.5294 11.8163L9.03774 13.1131L5.30834 15.4107L4.68794 19.2602V19.2602Z" fill="#34A853"/>
<path d="M0.838821 13.382C1.74903 15.6003 3.50425 17.5504 4.69178 19.2617L10.9994 11.2893C10.9994 11.2893 10.1107 12.5294 8.4988 12.5294C6.70329 12.5294 5.25276 10.9995 5.25276 9.07036C5.25276 7.74748 5.99864 6.83868 5.99864 6.83868L1.71689 8.06288L0.838821 13.3819V13.382Z" fill="#FBBC04"/>
<path d="M11.0698 0.409983C13.1647 1.13069 14.9578 2.64372 16.0423 4.87483L11.0013 11.2847C11.0013 11.2847 11.7472 10.3595 11.7472 9.04482C11.7472 7.0708 10.1893 5.5961 8.50643 5.5961C6.91501 5.5961 6.00102 6.83411 6.00102 6.83411V2.79596L11.0698 0.409912V0.409983Z" fill="#4285F4"/>
<path d="M1.99429 3.24221C3.24551 1.64487 5.44716 0 8.48247 0C9.95511 0 11.0646 0.412529 11.0646 0.412529L5.99625 6.83765H2.40528L1.99429 3.24228V3.24221Z" fill="#1A73E8"/>
<path d="M0.838822 13.382C0.838822 13.382 0.00144958 11.6323 0.00144958 9.09743C0.00144958 6.70168 0.874277 4.60751 1.99429 3.24219L5.9991 6.83819L0.838822 13.382V13.382Z" fill="#EA4335"/>
</g>
<defs>
<clipPath id="clip0_137_17">
<rect width="17" height="26" fill="white"/>
</clipPath>
</defs>
</svg>
