<svg width="26" height="26" viewBox="0 0 26 26" fill="none" xmlns="http://www.w3.org/2000/svg">
<path d="M13 15.1667C12.0972 15.1667 11.3299 14.8507 10.6979 14.2188C10.066 13.5868 9.74999 12.8195 9.74999 11.9167V5.41669C9.74999 4.51391 10.066 3.74655 10.6979 3.1146C11.3299 2.48266 12.0972 2.16669 13 2.16669C13.9028 2.16669 14.6701 2.48266 15.3021 3.1146C15.934 3.74655 16.25 4.51391 16.25 5.41669V11.9167C16.25 12.8195 15.934 13.5868 15.3021 14.2188C14.6701 14.8507 13.9028 15.1667 13 15.1667ZM11.9167 22.75V19.4188C10.0389 19.166 8.4861 18.3264 7.25832 16.9C6.03055 15.4736 5.41666 13.8125 5.41666 11.9167H7.58332C7.58332 13.4153 8.11163 14.6925 9.16824 15.7484C10.2241 16.805 11.5014 17.3334 13 17.3334C14.4986 17.3334 15.7762 16.805 16.8328 15.7484C17.8887 14.6925 18.4167 13.4153 18.4167 11.9167H20.5833C20.5833 13.8125 19.9694 15.4736 18.7417 16.9C17.5139 18.3264 15.9611 19.166 14.0833 19.4188V22.75H11.9167Z" fill="#545454"/>
</svg>
