<svg width="30" height="30" viewBox="0 0 30 30" fill="none" xmlns="http://www.w3.org/2000/svg">
<path d="M24.375 29.0625C26.3166 29.0625 27.8906 27.4885 27.8906 25.5469C27.8906 23.6052 26.3166 22.0312 24.375 22.0312C22.4334 22.0312 20.8594 23.6052 20.8594 25.5469C20.8594 27.4885 22.4334 29.0625 24.375 29.0625Z" fill="#3E4347"/>
<path d="M24.375 27.2344C25.3588 27.2344 26.1562 26.4369 26.1562 25.4531C26.1562 24.4694 25.3588 23.6719 24.375 23.6719C23.3912 23.6719 22.5938 24.4694 22.5938 25.4531C22.5938 26.4369 23.3912 27.2344 24.375 27.2344Z" fill="#94989B"/>
<path d="M4.92188 29.0625C6.8635 29.0625 8.4375 27.4885 8.4375 25.5469C8.4375 23.6052 6.8635 22.0312 4.92188 22.0312C2.98025 22.0312 1.40625 23.6052 1.40625 25.5469C1.40625 27.4885 2.98025 29.0625 4.92188 29.0625Z" fill="#3E4347"/>
<path d="M4.92188 27.3281C5.90563 27.3281 6.70313 26.5306 6.70313 25.5469C6.70313 24.5631 5.90563 23.7656 4.92188 23.7656C3.93812 23.7656 3.14062 24.5631 3.14062 25.5469C3.14062 26.5306 3.93812 27.3281 4.92188 27.3281Z" fill="#94989B"/>
<path d="M24.8438 17.2969H14.8125C14.8125 17.2969 17.2969 18.375 17.2969 20.6719C17.2969 21.9375 16.1719 22.9219 14.8125 22.9219H10.2656C9.46876 22.9219 8.8125 20.4375 8.8125 17.3438C8.8125 14.1562 10.0781 12.4688 10.0781 12.4688V11.4844C10.0781 11.1563 9.89063 10.875 9.65626 10.875C9.32813 10.8281 8.95313 10.6406 8.85938 10.2187C8.62501 9.375 8.0625 9.375 7.6875 9.375H7.03125V12.4688H8.62501C8.62501 12.4688 4.92188 17.3438 4.92188 19.7813C4.92188 20.1563 5.29688 20.7188 5.29688 20.7188H4.92188C3.32813 20.7188 1.73438 21.6094 0.98438 22.9688C0.60938 23.625 3.75 23.25 4.92188 23.8594C5.90625 24.375 6.32813 25.2187 7.96875 25.2187H9.51563C10.125 25.2187 10.3594 25.6875 11.0156 25.6875H29.0625C29.0625 20.3906 24.8438 17.2969 24.8438 17.2969Z" fill="#F2B200"/>
<path d="M6.5625 9.375H6.98437V12.4688H6.5625V9.375ZM6.14062 10.9219C6.14062 11.5312 6.32812 12 6.5625 12V9.79687C6.32812 9.79687 6.14062 10.3125 6.14062 10.9219Z" fill="#D0D0D0"/>
<path d="M6.5625 9.375V12.4688H6.98437C6.98437 12.4688 6.5625 10.9219 6.5625 9.375ZM6.5625 12V11.4375C6.23437 11.2969 6.14062 10.9219 6.14062 10.9219C6.14062 11.5312 6.32812 12 6.5625 12Z" fill="#94989B"/>
<path d="M9.75 12C10.0089 12 10.2188 11.7901 10.2188 11.5312C10.2188 11.2724 10.0089 11.0625 9.75 11.0625C9.49112 11.0625 9.28125 11.2724 9.28125 11.5312C9.28125 11.7901 9.49112 12 9.75 12Z" fill="#3E4347"/>
<path d="M10.9219 11.7187L10.7812 11.5781L9.84375 11.2031C9.65625 11.1562 9.46875 11.25 9.42187 11.4375C9.375 11.625 9.46875 11.8125 9.65625 11.8594L10.4531 12.1875C10.5469 12.2344 10.6406 12.2344 10.7344 12.1875C10.9219 12.0937 10.9687 11.9062 10.9219 11.7187" fill="#3E4347"/>
<path d="M10.5938 12.1875C10.7491 12.1875 10.875 12.0616 10.875 11.9063C10.875 11.7509 10.7491 11.625 10.5938 11.625C10.4384 11.625 10.3125 11.7509 10.3125 11.9063C10.3125 12.0616 10.4384 12.1875 10.5938 12.1875Z" fill="#94989B"/>
<path d="M26.1562 14.6719C26.1562 14.2032 25.7813 13.7813 25.2656 13.8282L14.7187 14.2032C14.25 14.2032 13.8281 14.625 13.8281 15.1407V16.4063C13.8281 16.875 14.2031 17.2969 14.7187 17.2969H25.2656C25.7344 17.2969 26.1562 16.875 26.1562 16.4063V14.6719Z" fill="#3E4347"/>
<path d="M14.2969 15.0469L25.6875 14.6719C25.6875 14.4375 25.5 14.25 25.2656 14.25L14.7187 14.625C14.4844 14.625 14.2969 14.8125 14.2969 15.0469Z" fill="#94989B"/>
<path d="M27.0938 20.5781C26.625 20.2031 26.1094 19.875 25.5937 19.6406C25.0781 19.3594 24.5156 19.125 23.9531 18.9844C23.3906 18.8437 22.8281 18.7031 22.2188 18.6562C21.6563 18.6094 21.0469 18.6562 20.5313 18.7969C19.4531 19.0781 18.5156 19.9219 18.0937 21C17.6719 22.0781 17.8125 23.2969 18.2344 24.4219C17.9063 23.9062 17.7187 23.3437 17.625 22.7344C17.5312 22.125 17.5781 21.5156 17.7656 20.9062C17.9531 20.2969 18.2813 19.7344 18.75 19.3125C19.2188 18.8906 19.7813 18.5625 20.3906 18.4219C21 18.2344 21.6563 18.2344 22.2188 18.2812C22.8281 18.3281 23.4375 18.4687 24 18.7031C25.2188 19.0781 26.2969 19.7344 27.0938 20.5781" fill="#89664C"/>
<path d="M27.4688 21.1875C27 20.8594 26.5313 20.5782 26.0156 20.3438C25.5 20.1094 24.9844 19.9219 24.4688 19.7813C23.9531 19.6407 23.3906 19.5469 22.8281 19.5C22.2656 19.4532 21.75 19.4532 21.2344 19.5938C20.1563 19.7813 19.2188 20.4375 18.75 21.375C18.2813 22.3594 18.375 23.5313 18.8438 24.5625C18.5156 24.0938 18.3281 23.5313 18.2344 22.9688C18.1406 22.4063 18.2344 21.7969 18.4219 21.2344C18.6563 20.6719 19.0313 20.2032 19.5 19.8282C19.9688 19.4532 20.5313 19.2188 21.0938 19.125C21.6563 19.0313 22.2656 19.0313 22.8281 19.0782C23.3906 19.125 23.9531 19.2657 24.5156 19.4532C25.6406 19.8282 26.625 20.3907 27.4688 21.1875" fill="#FFCE31"/>
<path d="M3.75 25.7812C3.87944 25.7812 3.98438 25.6763 3.98438 25.5469C3.98438 25.4174 3.87944 25.3125 3.75 25.3125C3.62056 25.3125 3.51562 25.4174 3.51562 25.5469C3.51562 25.6763 3.62056 25.7812 3.75 25.7812Z" fill="#D0D0D0"/>
<path d="M4.07812 26.625C4.20757 26.625 4.3125 26.5201 4.3125 26.3906C4.3125 26.2612 4.20757 26.1562 4.07812 26.1562C3.94868 26.1562 3.84375 26.2612 3.84375 26.3906C3.84375 26.5201 3.94868 26.625 4.07812 26.625Z" fill="#D0D0D0"/>
<path d="M4.92188 26.9531C5.05132 26.9531 5.15625 26.8482 5.15625 26.7188C5.15625 26.5893 5.05132 26.4844 4.92188 26.4844C4.79243 26.4844 4.6875 26.5893 4.6875 26.7188C4.6875 26.8482 4.79243 26.9531 4.92188 26.9531Z" fill="#D0D0D0"/>
<path d="M5.76562 26.625C5.89507 26.625 6 26.5201 6 26.3906C6 26.2612 5.89507 26.1562 5.76562 26.1562C5.63618 26.1562 5.53125 26.2612 5.53125 26.3906C5.53125 26.5201 5.63618 26.625 5.76562 26.625Z" fill="#D0D0D0"/>
<path d="M6.09375 25.7812C6.22319 25.7812 6.32812 25.6763 6.32812 25.5469C6.32812 25.4174 6.22319 25.3125 6.09375 25.3125C5.96431 25.3125 5.85938 25.4174 5.85938 25.5469C5.85938 25.6763 5.96431 25.7812 6.09375 25.7812Z" fill="#D0D0D0"/>
<path d="M5.76562 24.9375C5.89507 24.9375 6 24.8326 6 24.7031C6 24.5737 5.89507 24.4688 5.76562 24.4688C5.63618 24.4688 5.53125 24.5737 5.53125 24.7031C5.53125 24.8326 5.63618 24.9375 5.76562 24.9375Z" fill="#D0D0D0"/>
<path d="M4.92188 24.6094C5.05132 24.6094 5.15625 24.5044 5.15625 24.375C5.15625 24.2456 5.05132 24.1406 4.92188 24.1406C4.79243 24.1406 4.6875 24.2456 4.6875 24.375C4.6875 24.5044 4.79243 24.6094 4.92188 24.6094Z" fill="#D0D0D0"/>
<path d="M4.07812 24.9375C4.20757 24.9375 4.3125 24.8326 4.3125 24.7031C4.3125 24.5737 4.20757 24.4688 4.07812 24.4688C3.94868 24.4688 3.84375 24.5737 3.84375 24.7031C3.84375 24.8326 3.94868 24.9375 4.07812 24.9375Z" fill="#D0D0D0"/>
<path d="M9 24.1875C8.76563 23.5312 8.4375 22.9687 8.01563 22.5C7.54688 22.0312 6.98438 21.7031 6.375 21.5156C5.76563 21.3281 5.10938 21.375 4.5 21.5156C3.89063 21.7031 3.28125 21.9843 2.76562 22.4531C3.14063 21.8906 3.70312 21.4218 4.40625 21.1875C5.0625 20.9531 5.8125 20.9062 6.51562 21.0937C7.21875 21.2812 7.82813 21.7031 8.29688 22.2656C8.71875 22.8281 8.95313 23.4843 9 24.1875" fill="#FFCE31"/>
<path d="M4.92187 25.9688C5.15487 25.9688 5.34375 25.7799 5.34375 25.5469C5.34375 25.3139 5.15487 25.125 4.92187 25.125C4.68888 25.125 4.5 25.3139 4.5 25.5469C4.5 25.7799 4.68888 25.9688 4.92187 25.9688Z" fill="#D0D0D0"/>
<path d="M23.5312 26.5312C23.6607 26.5312 23.7656 26.4263 23.7656 26.2969C23.7656 26.1674 23.6607 26.0625 23.5312 26.0625C23.4018 26.0625 23.2969 26.1674 23.2969 26.2969C23.2969 26.4263 23.4018 26.5312 23.5312 26.5312Z" fill="#D0D0D0"/>
<path d="M24.375 26.8594C24.5044 26.8594 24.6094 26.7544 24.6094 26.625C24.6094 26.4956 24.5044 26.3906 24.375 26.3906C24.2456 26.3906 24.1406 26.4956 24.1406 26.625C24.1406 26.7544 24.2456 26.8594 24.375 26.8594Z" fill="#D0D0D0"/>
<path d="M25.2188 26.5312C25.3482 26.5312 25.4531 26.4263 25.4531 26.2969C25.4531 26.1674 25.3482 26.0625 25.2188 26.0625C25.0893 26.0625 24.9844 26.1674 24.9844 26.2969C24.9844 26.4263 25.0893 26.5312 25.2188 26.5312Z" fill="#D0D0D0"/>
<path d="M24 25.6406C24.0938 25.7813 24.2344 25.875 24.375 25.875C24.5156 25.875 24.7031 25.7813 24.75 25.6406H24" fill="#D0D0D0"/>
</svg>
