<svg width="30" height="30" viewBox="0 0 30 30" fill="none" xmlns="http://www.w3.org/2000/svg">
<g clip-path="url(#clip0_137_111)">
<path fill-rule="evenodd" clip-rule="evenodd" d="M6.25 3.75C5.58696 3.75 4.95107 4.01339 4.48223 4.48223C4.01339 4.95107 3.75 5.58696 3.75 6.25V23.75C3.41848 23.75 3.10054 23.8817 2.86612 24.1161C2.6317 24.3505 2.5 24.6685 2.5 25C2.5 25.3315 2.6317 25.6495 2.86612 25.8839C3.10054 26.1183 3.41848 26.25 3.75 26.25H18.75C19.0815 26.25 19.3995 26.1183 19.6339 25.8839C19.8683 25.6495 20 25.3315 20 25C20 24.6685 19.8683 24.3505 19.6339 24.1161C19.3995 23.8817 19.0815 23.75 18.75 23.75V17.5H20V20.625C20 21.4538 20.3292 22.2487 20.9153 22.8347C21.5013 23.4208 22.2962 23.75 23.125 23.75C23.9538 23.75 24.7487 23.4208 25.3347 22.8347C25.9208 22.2487 26.25 21.4538 26.25 20.625V13.0175C26.2499 12.3545 25.9864 11.7187 25.5175 11.25L22.1338 7.86625C22.0184 7.74686 21.8805 7.65163 21.728 7.58612C21.5755 7.52061 21.4115 7.48613 21.2455 7.48469C21.0795 7.48324 20.9149 7.51487 20.7613 7.57772C20.6077 7.64057 20.4681 7.73339 20.3508 7.85076C20.2334 7.96812 20.1406 8.10769 20.0777 8.26131C20.0149 8.41493 19.9832 8.57953 19.9847 8.7455C19.9861 8.91148 20.0206 9.0755 20.0861 9.22801C20.1516 9.38051 20.2469 9.51844 20.3662 9.63375L21.7412 11.01C21.4646 11.3819 21.2969 11.8235 21.2568 12.2852C21.2168 12.747 21.3059 13.2109 21.5144 13.6249C21.7228 14.0389 22.0423 14.3868 22.4371 14.6296C22.8319 14.8725 23.2865 15.0007 23.75 15L23.7512 20.625C23.7512 20.7908 23.6854 20.9497 23.5682 21.0669C23.451 21.1842 23.292 21.25 23.1262 21.25C22.9605 21.25 22.8015 21.1842 22.6843 21.0669C22.5671 20.9497 22.5012 20.7908 22.5012 20.625V17.5C22.5012 16.837 22.2379 16.2011 21.769 15.7322C21.3002 15.2634 20.6643 15 20.0012 15H18.7513V6.25C18.7513 5.58696 18.4879 4.95107 18.019 4.48223C17.5502 4.01339 16.9143 3.75 16.2513 3.75H6.25ZM16.25 12.5V6.25H6.25V12.5H16.25Z" fill="#EA4335"/>
</g>
<defs>
<clipPath id="clip0_137_111">
<rect width="30" height="30" fill="white"/>
</clipPath>
</defs>
</svg>
